<svg xmlns="http://www.w3.org/2000/svg" viewBox="0 0 1200 900"><defs><linearGradient id="g1" x1="0" x2="1" y1="0" y2="1"><stop offset="0%" stop-color="#c2f1ff"/><stop offset="100%" stop-color="#5e89ff"/></linearGradient></defs><rect width="1200" height="900" fill="url(#g1)"/><circle cx="220" cy="180" r="110" fill="#e9f9ff" opacity="0.8"/><path d="M180 650c160-280 430-330 690-190 85 46 132 81 190 160-180 80-468 124-705 72C274 677 220 668 180 650Z" fill="#173bcd" opacity="0.88"/><path d="M156 662c145-233 422-290 610-160 60 42 108 89 167 161-226 73-518 90-777-1Z" fill="#20c0ff" opacity="0.86"/><circle cx="818" cy="222" r="36" fill="#d8fbff"/><circle cx="914" cy="322" r="24" fill="#f4ffff"/></svg>
