<svg xmlns="http://www.w3.org/2000/svg" viewBox="0 0 1200 900"><defs><linearGradient id="g3" x1="0" x2="1" y1="0" y2="1"><stop offset="0%" stop-color="#1e72df"/><stop offset="100%" stop-color="#f9b8d8"/></linearGradient></defs><rect width="1200" height="900" fill="url(#g3)"/><path d="M45 682c183-92 430-85 609-20 132 49 208 105 326 186H0c14-55 24-104 45-166Z" fill="#8ac9ff" opacity="0.9"/><path d="M80 430c166-214 494-322 756-230 71 25 134 73 210 145-76 35-175 51-293 50-95-1-147 12-234 59-158 84-286 96-439 34Z" fill="#0d2ca6" opacity="0.88"/><circle cx="920" cy="124" r="68" fill="#dcd4ff" opacity="0.7"/><circle cx="1010" cy="182" r="28" fill="#ffffff" opacity="0.7"/></svg>
